<mxfile host="app.diagrams.net" modified="2022-01-18T07:54:11.041Z" agent="5.0 (Windows)" etag="tcIe9Dbv_S5-EIk65o_Y" version="15.7.2" type="github">
  <diagram id="1rrCkgOocqfLfsYCuxov" name="Page-1">
    <mxGraphModel dx="4152" dy="3425" grid="1" gridSize="10" guides="1" tooltips="1" connect="1" arrows="1" fold="1" page="1" pageScale="1" pageWidth="827" pageHeight="1169" math="0" shadow="0">
      <root>
        <mxCell id="0" />
        <mxCell id="1" parent="0" />
        <mxCell id="aZzj-qA5KwKcpCNxHVRt-2" value="" style="whiteSpace=wrap;html=1;hachureGap=4;pointerEvents=0;" parent="1" vertex="1">
          <mxGeometry x="160" y="200" width="1920" height="2030" as="geometry" />
        </mxCell>
        <mxCell id="aZzj-qA5KwKcpCNxHVRt-38" value="" style="edgeStyle=none;curved=1;rounded=0;orthogonalLoop=1;jettySize=auto;html=1;endArrow=open;startSize=14;endSize=14;sourcePerimeterSpacing=8;targetPerimeterSpacing=8;" parent="1" source="aZzj-qA5KwKcpCNxHVRt-3" target="aZzj-qA5KwKcpCNxHVRt-37" edge="1">
          <mxGeometry relative="1" as="geometry" />
        </mxCell>
        <mxCell id="aZzj-qA5KwKcpCNxHVRt-3" value="" style="rounded=0;whiteSpace=wrap;html=1;hachureGap=4;pointerEvents=0;" parent="1" vertex="1">
          <mxGeometry x="160" y="200" width="1920" height="180" as="geometry" />
        </mxCell>
        <mxCell id="aZzj-qA5KwKcpCNxHVRt-5" value="&lt;font style=&quot;font-size: 40px&quot;&gt;Logo&lt;/font&gt;" style="rounded=1;whiteSpace=wrap;html=1;hachureGap=4;pointerEvents=0;" parent="1" vertex="1">
          <mxGeometry x="160" y="200" width="300" height="180" as="geometry" />
        </mxCell>
        <mxCell id="aZzj-qA5KwKcpCNxHVRt-34" style="edgeStyle=none;curved=1;rounded=0;orthogonalLoop=1;jettySize=auto;html=1;entryX=1;entryY=0.5;entryDx=0;entryDy=0;endArrow=open;startSize=14;endSize=14;sourcePerimeterSpacing=8;targetPerimeterSpacing=8;" parent="1" source="aZzj-qA5KwKcpCNxHVRt-6" target="aZzj-qA5KwKcpCNxHVRt-30" edge="1">
          <mxGeometry relative="1" as="geometry" />
        </mxCell>
        <mxCell id="aZzj-qA5KwKcpCNxHVRt-6" value="&lt;font style=&quot;font-size: 40px&quot;&gt;LogIn/&lt;br&gt;/RegIn&lt;/font&gt;" style="whiteSpace=wrap;html=1;aspect=fixed;hachureGap=4;pointerEvents=0;" parent="1" vertex="1">
          <mxGeometry x="1900" y="200" width="180" height="180" as="geometry" />
        </mxCell>
        <mxCell id="aZzj-qA5KwKcpCNxHVRt-33" style="edgeStyle=none;curved=1;rounded=0;orthogonalLoop=1;jettySize=auto;html=1;entryX=1;entryY=0.75;entryDx=0;entryDy=0;endArrow=open;startSize=14;endSize=14;sourcePerimeterSpacing=8;targetPerimeterSpacing=8;" parent="1" source="aZzj-qA5KwKcpCNxHVRt-7" target="aZzj-qA5KwKcpCNxHVRt-30" edge="1">
          <mxGeometry relative="1" as="geometry" />
        </mxCell>
        <mxCell id="aZzj-qA5KwKcpCNxHVRt-7" value="&lt;span style=&quot;font-size: 40px&quot;&gt;Informatii utile&lt;/span&gt;" style="whiteSpace=wrap;html=1;aspect=fixed;hachureGap=4;pointerEvents=0;" parent="1" vertex="1">
          <mxGeometry x="1720" y="200" width="180" height="180" as="geometry" />
        </mxCell>
        <mxCell id="aZzj-qA5KwKcpCNxHVRt-31" value="" style="edgeStyle=none;curved=1;rounded=0;orthogonalLoop=1;jettySize=auto;html=1;endArrow=open;startSize=14;endSize=14;sourcePerimeterSpacing=8;targetPerimeterSpacing=8;" parent="1" source="aZzj-qA5KwKcpCNxHVRt-9" target="aZzj-qA5KwKcpCNxHVRt-30" edge="1">
          <mxGeometry relative="1" as="geometry" />
        </mxCell>
        <mxCell id="aZzj-qA5KwKcpCNxHVRt-9" value="&lt;font style=&quot;font-size: 40px&quot;&gt;Turism intern&lt;/font&gt;" style="whiteSpace=wrap;html=1;aspect=fixed;hachureGap=4;pointerEvents=0;" parent="1" vertex="1">
          <mxGeometry x="1360" y="200" width="180" height="180" as="geometry" />
        </mxCell>
        <mxCell id="aZzj-qA5KwKcpCNxHVRt-32" style="edgeStyle=none;curved=1;rounded=0;orthogonalLoop=1;jettySize=auto;html=1;entryX=1;entryY=1;entryDx=0;entryDy=0;endArrow=open;startSize=14;endSize=14;sourcePerimeterSpacing=8;targetPerimeterSpacing=8;" parent="1" source="aZzj-qA5KwKcpCNxHVRt-11" target="aZzj-qA5KwKcpCNxHVRt-30" edge="1">
          <mxGeometry relative="1" as="geometry" />
        </mxCell>
        <mxCell id="aZzj-qA5KwKcpCNxHVRt-11" value="&lt;span style=&quot;font-size: 40px&quot;&gt;Turism extern&lt;/span&gt;" style="whiteSpace=wrap;html=1;aspect=fixed;hachureGap=4;pointerEvents=0;" parent="1" vertex="1">
          <mxGeometry x="1540" y="200" width="180" height="180" as="geometry" />
        </mxCell>
        <mxCell id="aZzj-qA5KwKcpCNxHVRt-13" value="&lt;font style=&quot;font-size: 40px&quot;&gt;Home Page&lt;/font&gt;" style="whiteSpace=wrap;html=1;aspect=fixed;hachureGap=4;pointerEvents=0;" parent="1" vertex="1">
          <mxGeometry x="1180" y="200" width="180" height="180" as="geometry" />
        </mxCell>
        <mxCell id="aZzj-qA5KwKcpCNxHVRt-18" value="&lt;font style=&quot;font-size: 40px&quot;&gt;Imagine cu&amp;nbsp; un peisaj in dependenta de anotimp&lt;br&gt;&lt;/font&gt;" style="text;html=1;strokeColor=none;fillColor=none;align=center;verticalAlign=middle;whiteSpace=wrap;rounded=0;hachureGap=4;pointerEvents=0;" parent="1" vertex="1">
          <mxGeometry x="600" y="200" width="360" height="180" as="geometry" />
        </mxCell>
        <mxCell id="aZzj-qA5KwKcpCNxHVRt-19" value="" style="rounded=0;whiteSpace=wrap;html=1;hachureGap=4;pointerEvents=0;" parent="1" vertex="1">
          <mxGeometry x="160" y="380" width="1920" height="380" as="geometry" />
        </mxCell>
        <mxCell id="aZzj-qA5KwKcpCNxHVRt-22" value="" style="edgeStyle=none;curved=1;rounded=0;orthogonalLoop=1;jettySize=auto;html=1;endArrow=open;startSize=14;endSize=14;sourcePerimeterSpacing=8;targetPerimeterSpacing=8;" parent="1" source="aZzj-qA5KwKcpCNxHVRt-20" target="aZzj-qA5KwKcpCNxHVRt-21" edge="1">
          <mxGeometry relative="1" as="geometry" />
        </mxCell>
        <mxCell id="aZzj-qA5KwKcpCNxHVRt-20" value="&lt;span style=&quot;font-size: 30px&quot;&gt;Oferte populare sau speciale cu poza si denumire deasupra&lt;/span&gt;" style="whiteSpace=wrap;html=1;aspect=fixed;hachureGap=4;pointerEvents=0;" parent="1" vertex="1">
          <mxGeometry x="1688" y="380" width="380" height="380" as="geometry" />
        </mxCell>
        <mxCell id="aZzj-qA5KwKcpCNxHVRt-24" value="" style="edgeStyle=none;curved=1;rounded=0;orthogonalLoop=1;jettySize=auto;html=1;endArrow=open;startSize=14;endSize=14;sourcePerimeterSpacing=8;targetPerimeterSpacing=8;" parent="1" source="aZzj-qA5KwKcpCNxHVRt-21" target="aZzj-qA5KwKcpCNxHVRt-23" edge="1">
          <mxGeometry relative="1" as="geometry" />
        </mxCell>
        <mxCell id="aZzj-qA5KwKcpCNxHVRt-21" value="&lt;span style=&quot;font-size: 30px&quot;&gt;Oferte populare sau speciale cu poza si denumire deasupra&lt;/span&gt;" style="whiteSpace=wrap;html=1;aspect=fixed;hachureGap=4;pointerEvents=0;" parent="1" vertex="1">
          <mxGeometry x="1220" y="380" width="380" height="380" as="geometry" />
        </mxCell>
        <mxCell id="aZzj-qA5KwKcpCNxHVRt-26" value="" style="edgeStyle=none;curved=1;rounded=0;orthogonalLoop=1;jettySize=auto;html=1;endArrow=open;startSize=14;endSize=14;sourcePerimeterSpacing=8;targetPerimeterSpacing=8;" parent="1" source="aZzj-qA5KwKcpCNxHVRt-23" target="aZzj-qA5KwKcpCNxHVRt-25" edge="1">
          <mxGeometry relative="1" as="geometry" />
        </mxCell>
        <mxCell id="aZzj-qA5KwKcpCNxHVRt-23" value="&lt;span style=&quot;font-size: 30px&quot;&gt;Oferte populare sau speciale cu poza si denumire deasupra&lt;/span&gt;" style="whiteSpace=wrap;html=1;aspect=fixed;hachureGap=4;pointerEvents=0;" parent="1" vertex="1">
          <mxGeometry x="740" y="380" width="380" height="380" as="geometry" />
        </mxCell>
        <mxCell id="aZzj-qA5KwKcpCNxHVRt-28" value="" style="edgeStyle=none;curved=1;rounded=0;orthogonalLoop=1;jettySize=auto;html=1;endArrow=open;startSize=14;endSize=14;sourcePerimeterSpacing=8;targetPerimeterSpacing=8;entryX=0;entryY=0.5;entryDx=0;entryDy=0;" parent="1" source="aZzj-qA5KwKcpCNxHVRt-25" target="aZzj-qA5KwKcpCNxHVRt-19" edge="1">
          <mxGeometry relative="1" as="geometry">
            <mxPoint x="248" y="570" as="targetPoint" />
          </mxGeometry>
        </mxCell>
        <mxCell id="aZzj-qA5KwKcpCNxHVRt-25" value="&lt;font style=&quot;font-size: 30px&quot;&gt;Oferte populare sau speciale cu poza si denumire deasupra&lt;/font&gt;" style="whiteSpace=wrap;html=1;aspect=fixed;hachureGap=4;pointerEvents=0;" parent="1" vertex="1">
          <mxGeometry x="260" y="380" width="380" height="380" as="geometry" />
        </mxCell>
        <mxCell id="aZzj-qA5KwKcpCNxHVRt-29" value="&lt;font style=&quot;font-size: 50px&quot;&gt;Bara de navigare aici vor fi butoane si capitole pentru aceste butoane, exemplu: cap. 1 Turism intern: si lista de locuri in tara; cap. 2 Turism extern si lista de tari...mai jos va fi&amp;nbsp;&amp;nbsp;&lt;/font&gt;" style="whiteSpace=wrap;html=1;hachureGap=4;pointerEvents=0;direction=west;" parent="1" vertex="1">
          <mxGeometry x="160" y="760" width="430" height="1220" as="geometry" />
        </mxCell>
        <mxCell id="aZzj-qA5KwKcpCNxHVRt-30" value="&lt;font style=&quot;font-size: 25px&quot;&gt;Cand se pune mouse-ul deasupra la una din butoane apare un mic menu, la turisme e locurile, ca si in capitole din bara de navigare, la butonul cerere va arata info ca daca de apasat se va deschide formular daca se apasa, la aopasare se deschide formularul dat in locul la informatia pe pagina si acolo poti alege ce fel de excursie doresti, proprietatile ei, la log in nimic, homepage va duce la pagina principala, meniul dat e la fel pentru toate paginile&lt;/font&gt;" style="whiteSpace=wrap;html=1;hachureGap=4;" parent="1" vertex="1">
          <mxGeometry x="400" y="-530" width="690" height="300" as="geometry" />
        </mxCell>
        <mxCell id="aZzj-qA5KwKcpCNxHVRt-37" value="&lt;font style=&quot;font-size: 30px&quot;&gt;Cand se da in jos pagina menu se inchide dar cand incepi a rula in sus el se deschide chiar daca nu ai ajuns la capat&lt;/font&gt;" style="whiteSpace=wrap;html=1;rounded=0;hachureGap=4;" parent="1" vertex="1">
          <mxGeometry x="180" y="-70" width="460" height="150" as="geometry" />
        </mxCell>
        <mxCell id="aZzj-qA5KwKcpCNxHVRt-44" value="" style="edgeStyle=none;curved=1;rounded=0;orthogonalLoop=1;jettySize=auto;html=1;endArrow=open;startSize=14;endSize=14;sourcePerimeterSpacing=8;targetPerimeterSpacing=8;" parent="1" source="aZzj-qA5KwKcpCNxHVRt-39" target="aZzj-qA5KwKcpCNxHVRt-43" edge="1">
          <mxGeometry relative="1" as="geometry" />
        </mxCell>
        <mxCell id="aZzj-qA5KwKcpCNxHVRt-43" value="&lt;font style=&quot;font-size: 24px&quot;&gt;butonul dat automat ruleaza pana la inceputul paginei, el mereu se afla la coltul ecranului&lt;/font&gt;" style="whiteSpace=wrap;html=1;hachureGap=4;" parent="1" vertex="1">
          <mxGeometry x="2240" y="890" width="460" height="200" as="geometry" />
        </mxCell>
        <mxCell id="aZzj-qA5KwKcpCNxHVRt-45" value="&lt;font style=&quot;font-size: 33px&quot;&gt;Aici va fi rezumat de pe pagina de informatie despre firma, va contine doar linkuri si numere, emailuri,&amp;nbsp;&amp;nbsp;&lt;/font&gt;" style="rounded=0;whiteSpace=wrap;html=1;hachureGap=4;pointerEvents=0;" parent="1" vertex="1">
          <mxGeometry x="160" y="1980" width="1920" height="250" as="geometry" />
        </mxCell>
        <mxCell id="aZzj-qA5KwKcpCNxHVRt-40" value="&lt;font style=&quot;font-size: 24px&quot;&gt;UP&lt;/font&gt;" style="ellipse;whiteSpace=wrap;html=1;aspect=fixed;hachureGap=4;pointerEvents=0;" parent="1" vertex="1">
          <mxGeometry x="1930" y="2080" width="80" height="80" as="geometry" />
        </mxCell>
        <mxCell id="aZzj-qA5KwKcpCNxHVRt-48" value="&lt;span style=&quot;font-size: 62px&quot;&gt;Aici va fi info si poze despre locurile care s-au ales si poze, sau va apararea formularul de cautare a excursiei potrivit unde iti alegi preferintele si el din catalog alege si iti arata ceea ce iti merge&amp;nbsp;&lt;/span&gt;" style="whiteSpace=wrap;html=1;hachureGap=4;pointerEvents=0;" parent="1" vertex="1">
          <mxGeometry x="590" y="760" width="1490" height="1220" as="geometry" />
        </mxCell>
        <mxCell id="aZzj-qA5KwKcpCNxHVRt-39" value="&lt;font style=&quot;font-size: 24px&quot;&gt;UP&lt;/font&gt;" style="ellipse;whiteSpace=wrap;html=1;aspect=fixed;hachureGap=4;pointerEvents=0;" parent="1" vertex="1">
          <mxGeometry x="1930" y="1080" width="80" height="80" as="geometry" />
        </mxCell>
        <mxCell id="aZzj-qA5KwKcpCNxHVRt-41" value="" style="edgeStyle=none;curved=1;rounded=0;orthogonalLoop=1;jettySize=auto;html=1;endArrow=open;startSize=14;endSize=14;sourcePerimeterSpacing=8;targetPerimeterSpacing=8;" parent="1" source="aZzj-qA5KwKcpCNxHVRt-39" target="aZzj-qA5KwKcpCNxHVRt-40" edge="1">
          <mxGeometry relative="1" as="geometry" />
        </mxCell>
      </root>
    </mxGraphModel>
  </diagram>
</mxfile>
